<svg xmlns="http://www.w3.org/2000/svg" viewBox="0 0 141.73 141.73"><defs><style>.cls-1{fill:#c00;}.cls-2{fill:#4d4d4d;}</style></defs><g id="圖層_4" data-name="圖層 4"><path class="cls-1" d="M55,65.57q5.71-6,11.45-11.94l-8.95-9c4-8.37,3-18.26-3.43-24.7-6.58-6.57-16.79-7.55-25.27-3.16a1.12,1.12,0,0,0-.29,1.79L38.8,28.88a1.13,1.13,0,0,1,0,1.58l-7.2,7.19a1.12,1.12,0,0,1-1.57,0L19.76,27.38a1.13,1.13,0,0,0-1.8.29c-4.38,8.48-3.41,18.69,3.17,25.27s16.33,7.48,24.7,3.43Z"/><path class="cls-1" d="M102,89.13l-14.3-14.3q-6,5.74-11.93,11.45l14.54,14.54c-4.06,8.37-3,18.26,3.43,24.7,6.58,6.58,16.79,7.55,25.27,3.17a1.13,1.13,0,0,0,.29-1.8L109,116.62a1.11,1.11,0,0,1,0-1.58l7.19-7.19a1.13,1.13,0,0,1,1.58,0L128,118.12a1.12,1.12,0,0,0,1.79-.29c4.39-8.48,3.41-18.69-3.17-25.27C120.23,86.13,110.34,85.08,102,89.13Z"/><path class="cls-2" d="M51.11,99.68c.2-.19.4-.36.6-.54A17.32,17.32,0,0,1,42.2,90c-.12.13-.22.26-.34.38a11.7,11.7,0,0,1-6.41,2.87c0,.06-6.69,1.79-12.49-1.13.71,7-.7,19.82-13.59,39.47-.21.33-.13.34-.13.4l0,0,24.09-25.75a3.3,3.3,0,0,1,.14-4c1.22-1.21,3.47-.92,5,.65s1.86,3.83.65,5a3.27,3.27,0,0,1-4,.15L9.46,132.25l0,0c.06,0,.07.09.39-.13,19.66-12.88,32.51-14.29,39.47-13.58a18.93,18.93,0,0,1-1.23-12.4S49.59,101.21,51.11,99.68Z"/><path class="cls-2" d="M131.53,20.1A19.69,19.69,0,0,0,121.2,9.78a5.33,5.33,0,0,0-5.3.87Q100.35,26.07,85,41.74A27,27,0,0,0,99.58,56.26q15.65-15.32,31.07-30.86A5.33,5.33,0,0,0,131.53,20.1Z"/><path class="cls-2" d="M82.76,44Q63.92,63.33,45.42,83a5.1,5.1,0,0,0-1,4.93,17.12,17.12,0,0,0,9,9,5.12,5.12,0,0,0,4.93-1Q78,77.38,97.27,58.53A30.09,30.09,0,0,1,82.76,44Z"/></g></svg>