<svg xmlns="http://www.w3.org/2000/svg" version="1.1" xmlns:xlink="http://www.w3.org/1999/xlink" xmlns:svgjs="http://svgjs.dev/svgjs" width="1920" height="1080" preserveAspectRatio="none" viewBox="0 0 1920 1080"><g mask="url(&quot;#SvgjsMask1874&quot;)" fill="none"><rect width="452.48" height="452.48" clip-path="url(&quot;#SvgjsClipPath1875&quot;)" x="-76.45" y="170.55" fill="url(&quot;#SvgjsPattern1876&quot;)" transform="rotate(205.93, 149.79, 396.79)"></rect><path d="M171.68 950.26a5.6 5.6 0 1 0 3.92 10.49 5.6 5.6 0 1 0-3.92-10.49zM177.27 965.25a5.6 5.6 0 1 0 3.92 10.49 5.6 5.6 0 1 0-3.92-10.49zM182.87 980.24a5.6 5.6 0 1 0 3.92 10.49 5.6 5.6 0 1 0-3.92-10.49zM188.46 995.23a5.6 5.6 0 1 0 3.92 10.49 5.6 5.6 0 1 0-3.92-10.49zM145.5 925.88a5.6 5.6 0 1 0 3.91 10.49 5.6 5.6 0 1 0-3.91-10.49zM151.09 940.87a5.6 5.6 0 1 0 3.92 10.49 5.6 5.6 0 1 0-3.92-10.49zM156.69 955.86a5.6 5.6 0 1 0 3.92 10.49 5.6 5.6 0 1 0-3.92-10.49zM162.28 970.85a5.6 5.6 0 1 0 3.92 10.49 5.6 5.6 0 1 0-3.92-10.49zM119.32 901.49a5.6 5.6 0 1 0 3.91 10.5 5.6 5.6 0 1 0-3.91-10.5zM124.91 916.48a5.6 5.6 0 1 0 3.92 10.5 5.6 5.6 0 1 0-3.92-10.5zM130.51 931.47a5.6 5.6 0 1 0 3.91 10.5 5.6 5.6 0 1 0-3.91-10.5zM136.1 946.46a5.6 5.6 0 1 0 3.92 10.5 5.6 5.6 0 1 0-3.92-10.5z" stroke="rgba(255, 57, 188, 0.1)" stroke-width="2.28" stroke-dasharray="4, 4"></path><rect width="246.4" height="246.4" clip-path="url(&quot;#SvgjsClipPath1877&quot;)" x="1497.13" y="-62.61" fill="url(&quot;#SvgjsPattern1878&quot;)" transform="rotate(209.99, 1620.33, 60.59)"></rect><rect width="492" height="492" clip-path="url(&quot;#SvgjsClipPath1879&quot;)" x="1360.22" y="532.89" fill="url(&quot;#SvgjsPattern1880&quot;)" transform="rotate(22.21, 1606.22, 778.89)"></rect><rect width="156" height="156" clip-path="url(&quot;#SvgjsClipPath1881&quot;)" x="428.66" y="534.04" fill="url(&quot;#SvgjsPattern1882&quot;)" transform="rotate(143.29, 506.66, 612.04)"></rect><path d="M763.1500000000001 421.29 L605.75 591.88L776.3133220068671 598.4483220068671z" fill="rgba(255, 57, 188, 0.1)"></path><path d="M1341.65 426.48L1350.03 436.16 1342.42 446.46 1350.8 456.15 1343.18 466.45 1351.56 476.13 1343.95 486.43M1333.66 426.78L1342.03 436.47 1334.42 446.77 1342.8 456.46 1335.19 466.75 1343.57 476.44 1335.96 486.74" stroke="rgba(255, 57, 188, 0.1)" stroke-width="1" stroke-dasharray="3, 2"></path><path d="M1512.86 319.27L1524.14 325.34 1520.69 337.68 1531.97 343.75 1528.52 356.08 1539.79 362.15 1536.34 374.49M1505.5 322.4L1516.78 328.47 1513.33 340.81 1524.6 346.88 1521.16 359.21 1532.43 365.28 1528.98 377.62" stroke="rgba(255, 57, 188, 0.1)" stroke-width="1.96" stroke-dasharray="3, 2"></path></g><defs><mask id="SvgjsMask1874"><rect width="1920" height="1080" fill="#ffffff"></rect></mask><pattern x="0" y="0" width="452.48" height="8.08" patternUnits="userSpaceOnUse" id="SvgjsPattern1876"><rect width="452.48" height="4.04" x="0" y="0" fill="rgba(255, 57, 188, 0.1)"></rect><rect width="452.48" height="4.04" x="0" y="4.04" fill="rgba(0, 0, 0, 0)"></rect></pattern><clipPath id="SvgjsClipPath1875"><circle r="113.12" cx="149.79" cy="396.79"></circle></clipPath><pattern x="0" y="0" width="7.7" height="7.7" patternUnits="userSpaceOnUse" id="SvgjsPattern1878"><path d="M3.85 1L3.85 6.7M1 3.85L6.7 3.85" stroke="rgba(255, 57, 188, 0.1)" fill="none" stroke-width="2.13"></path></pattern><clipPath id="SvgjsClipPath1877"><circle r="61.6" cx="1620.33" cy="60.59"></circle></clipPath><pattern x="0" y="0" width="6" height="6" patternUnits="userSpaceOnUse" id="SvgjsPattern1880"><path d="M3 1L3 5M1 3L5 3" stroke="rgba(255, 57, 188, 0.1)" fill="none" stroke-width="1"></path></pattern><clipPath id="SvgjsClipPath1879"><circle r="123" cx="1606.22" cy="778.89"></circle></clipPath><pattern x="0" y="0" width="156" height="6" patternUnits="userSpaceOnUse" id="SvgjsPattern1882"><rect width="156" height="3" x="0" y="0" fill="rgba(255, 57, 188, 0.1)"></rect><rect width="156" height="3" x="0" y="3" fill="rgba(0, 0, 0, 0)"></rect></pattern><clipPath id="SvgjsClipPath1881"><circle r="39" cx="506.66" cy="612.04"></circle></clipPath></defs></svg>