<svg xmlns="http://www.w3.org/2000/svg" version="1.1" xmlns:xlink="http://www.w3.org/1999/xlink" xmlns:svgjs="http://svgjs.dev/svgjs" width="1920" height="1080" preserveAspectRatio="none" viewBox="0 0 1920 1080"><g mask="url(&quot;#SvgjsMask1155&quot;)" fill="none"><path d="M1223.76 971.99a5.6 5.6 0 1 0 2.16 10.99 5.6 5.6 0 1 0-2.16-10.99zM1226.84 987.69a5.6 5.6 0 1 0 2.15 10.99 5.6 5.6 0 1 0-2.15-10.99zM1229.92 1003.39a5.6 5.6 0 1 0 2.15 10.99 5.6 5.6 0 1 0-2.15-10.99zM1233 1019.09a5.6 5.6 0 1 0 2.15 10.99 5.6 5.6 0 1 0-2.15-10.99z" stroke="rgba(255, 57, 188, 0.1)" stroke-width="1.88" stroke-dasharray="4, 4"></path><rect width="540.12" height="540.12" clip-path="url(&quot;#SvgjsClipPath1156&quot;)" x="-3.53" y="46.2" fill="url(&quot;#SvgjsPattern1157&quot;)" transform="rotate(15.63, 266.53, 316.26)"></rect><path d="M1440.05 651.43a5.6 5.6 0 1 0 0.53-11.19 5.6 5.6 0 1 0-0.53 11.19zM1440.81 635.45a5.6 5.6 0 1 0 0.53-11.19 5.6 5.6 0 1 0-0.53 11.19zM1441.57 619.47a5.6 5.6 0 1 0 0.53-11.19 5.6 5.6 0 1 0-0.53 11.19zM1442.33 603.48a5.6 5.6 0 1 0 0.53-11.18 5.6 5.6 0 1 0-0.53 11.18z" fill="rgba(255, 57, 188, 0.1)"></path><path d="M1226.75 675.94a5.6 5.6 0 1 0-9.66-5.66 5.6 5.6 0 1 0 9.66 5.66zM1212.95 667.85a5.6 5.6 0 1 0-9.67-5.66 5.6 5.6 0 1 0 9.67 5.66zM1199.14 659.76a5.6 5.6 0 1 0-9.66-5.66 5.6 5.6 0 1 0 9.66 5.66zM1185.34 651.68a5.6 5.6 0 1 0-9.67-5.67 5.6 5.6 0 1 0 9.67 5.67zM1262.45 678.32a5.6 5.6 0 1 0-9.66-5.66 5.6 5.6 0 1 0 9.66 5.66zM1248.64 670.23a5.6 5.6 0 1 0-9.66-5.66 5.6 5.6 0 1 0 9.66 5.66zM1234.84 662.14a5.6 5.6 0 1 0-9.66-5.66 5.6 5.6 0 1 0 9.66 5.66zM1221.03 654.05a5.6 5.6 0 1 0-9.66-5.66 5.6 5.6 0 1 0 9.66 5.66zM1298.15 680.69a5.6 5.6 0 1 0-9.67-5.66 5.6 5.6 0 1 0 9.67 5.66zM1284.34 672.6a5.6 5.6 0 1 0-9.66-5.66 5.6 5.6 0 1 0 9.66 5.66zM1270.54 664.51a5.6 5.6 0 1 0-9.67-5.66 5.6 5.6 0 1 0 9.67 5.66zM1256.73 656.42a5.6 5.6 0 1 0-9.66-5.66 5.6 5.6 0 1 0 9.66 5.66z" fill="rgba(255, 57, 188, 0.1)"></path><circle r="145.82742749742218" cx="894.99" cy="730.17" stroke="rgba(255, 57, 188, 0.1)" stroke-width="1.32" stroke-dasharray="3, 2"></circle><rect width="136.08" height="136.08" clip-path="url(&quot;#SvgjsClipPath1158&quot;)" x="1015.82" y="619.89" fill="url(&quot;#SvgjsPattern1159&quot;)" transform="rotate(302.05, 1083.86, 687.93)"></rect><rect width="300" height="300" clip-path="url(&quot;#SvgjsClipPath1160&quot;)" x="368.84" y="-25.18" fill="url(&quot;#SvgjsPattern1161&quot;)" transform="rotate(199.43, 518.84, 124.82)"></rect><rect width="361.56" height="361.56" clip-path="url(&quot;#SvgjsClipPath1162&quot;)" x="1251.97" y="51.32" fill="url(&quot;#SvgjsPattern1163&quot;)" transform="rotate(207.91, 1432.75, 232.1)"></rect></g><defs><mask id="SvgjsMask1155"><rect width="1920" height="1080" fill="#ffffff"></rect></mask><pattern x="0" y="0" width="12.86" height="12.86" patternUnits="userSpaceOnUse" id="SvgjsPattern1157"><path d="M6.43 1L6.43 11.86M1 6.43L11.86 6.43" stroke="rgba(255, 57, 188, 0.1)" fill="none" stroke-width="5.29"></path></pattern><clipPath id="SvgjsClipPath1156"><circle r="135.03" cx="266.53" cy="316.26"></circle></clipPath><pattern x="0" y="0" width="7.56" height="7.56" patternUnits="userSpaceOnUse" id="SvgjsPattern1159"><path d="M3.78 1L3.78 6.56M1 3.78L6.56 3.78" stroke="rgba(255, 57, 188, 0.1)" fill="none" stroke-width="1.58"></path></pattern><clipPath id="SvgjsClipPath1158"><circle r="34.02" cx="1083.86" cy="687.93"></circle></clipPath><pattern x="0" y="0" width="6" height="6" patternUnits="userSpaceOnUse" id="SvgjsPattern1161"><path d="M3 1L3 5M1 3L5 3" stroke="rgba(255, 57, 188, 0.1)" fill="none" stroke-width="1"></path></pattern><clipPath id="SvgjsClipPath1160"><circle r="75" cx="518.84" cy="124.82"></circle></clipPath><pattern x="0" y="0" width="7.86" height="7.86" patternUnits="userSpaceOnUse" id="SvgjsPattern1163"><path d="M0 7.86L3.93 0L7.86 7.86" stroke="rgba(255, 57, 188, 0.1)" fill="none"></path></pattern><clipPath id="SvgjsClipPath1162"><circle r="90.39" cx="1432.75" cy="232.1"></circle></clipPath></defs></svg>