<svg xmlns="http://www.w3.org/2000/svg" version="1.1" xmlns:xlink="http://www.w3.org/1999/xlink" xmlns:svgjs="http://svgjs.dev/svgjs" width="1920" height="1080" preserveAspectRatio="none" viewBox="0 0 1920 1080"><g mask="url(&quot;#SvgjsMask1152&quot;)" fill="none"><rect width="1920" height="1080" x="0" y="0" fill="url(&quot;#SvgjsLinearGradient1153&quot;)"></rect><path d="M0 0L762.9 0L0 485.56z" fill="rgba(255, 255, 255, .1)"></path><path d="M0 485.56L762.9 0L1140.49 0L0 679.73z" fill="rgba(255, 255, 255, .075)"></path><path d="M0 679.73L1140.49 0L1142.2 0L0 717.94z" fill="rgba(255, 255, 255, .05)"></path><path d="M0 717.94L1142.2 0L1196.79 0L0 865.1800000000001z" fill="rgba(255, 255, 255, .025)"></path><path d="M1920 1080L1254.87 1080L1920 925.91z" fill="rgba(0, 0, 0, .1)"></path><path d="M1920 925.91L1254.87 1080L807.4699999999999 1080L1920 441.58z" fill="rgba(0, 0, 0, .075)"></path><path d="M1920 441.58000000000004L807.47 1080L411.85 1080L1920 361.9200000000001z" fill="rgba(0, 0, 0, .05)"></path><path d="M1920 361.9200000000001L411.8499999999999 1080L363.94999999999993 1080L1920 265.4200000000001z" fill="rgba(0, 0, 0, .025)"></path></g><defs><mask id="SvgjsMask1152"><rect width="1920" height="1080" fill="#ffffff"></rect></mask><linearGradient x1="89.06%" y1="119.44%" x2="10.94%" y2="-19.44%" gradientUnits="userSpaceOnUse" id="SvgjsLinearGradient1153"><stop stop-color="rgba(43, 14, 71, 1)" offset="0"></stop><stop stop-color="rgba(255, 57, 188, 1)" offset="1"></stop></linearGradient></defs></svg>