<svg xmlns="http://www.w3.org/2000/svg" version="1.1" xmlns:xlink="http://www.w3.org/1999/xlink" xmlns:svgjs="http://svgjs.dev/svgjs" width="1920" height="1080" preserveAspectRatio="none" viewBox="0 0 1920 1080"><g mask="url(&quot;#SvgjsMask1571&quot;)" fill="none"><rect width="1920" height="1080" x="0" y="0" fill="url(&quot;#SvgjsLinearGradient1572&quot;)"></rect><path d="M0 0L587.39 0L0 5.38z" fill="rgba(255, 255, 255, .1)"></path><path d="M0 5.38L587.39 0L823.48 0L0 369.93z" fill="rgba(255, 255, 255, .075)"></path><path d="M0 369.93L823.48 0L1215.38 0L0 482.15z" fill="rgba(255, 255, 255, .05)"></path><path d="M0 482.15L1215.38 0L1219.2700000000002 0L0 771.3399999999999z" fill="rgba(255, 255, 255, .025)"></path><path d="M1920 1080L989.91 1080L1920 821.9300000000001z" fill="rgba(0, 0, 0, .1)"></path><path d="M1920 821.9300000000001L989.91 1080L841.87 1080L1920 537.0300000000001z" fill="rgba(0, 0, 0, .075)"></path><path d="M1920 537.03L841.8699999999999 1080L724.5199999999999 1080L1920 505.2z" fill="rgba(0, 0, 0, .05)"></path><path d="M1920 505.19999999999993L724.52 1080L460.96999999999997 1080L1920 401.18999999999994z" fill="rgba(0, 0, 0, .025)"></path></g><defs><mask id="SvgjsMask1571"><rect width="1920" height="1080" fill="#ffffff"></rect></mask><linearGradient x1="89.06%" y1="119.44%" x2="10.94%" y2="-19.44%" gradientUnits="userSpaceOnUse" id="SvgjsLinearGradient1572"><stop stop-color="rgba(43, 14, 71, 1)" offset="0"></stop><stop stop-color="rgba(177, 12, 121, 1)" offset="1"></stop></linearGradient></defs></svg>