<svg xmlns="http://www.w3.org/2000/svg" version="1.1" xmlns:xlink="http://www.w3.org/1999/xlink" xmlns:svgjs="http://svgjs.dev/svgjs" width="1920" height="1080" preserveAspectRatio="none" viewBox="0 0 1920 1080"><g mask="url(&quot;#SvgjsMask1104&quot;)" fill="none"><rect width="1920" height="1080" x="0" y="0" fill="url(&quot;#SvgjsLinearGradient1105&quot;)"></rect><path d="M0 0L725.2 0L0 259.79z" fill="rgba(255, 255, 255, .1)"></path><path d="M0 259.79L725.2 0L1275.6100000000001 0L0 407.38z" fill="rgba(255, 255, 255, .075)"></path><path d="M0 407.38L1275.6100000000001 0L1369.89 0L0 659.55z" fill="rgba(255, 255, 255, .05)"></path><path d="M0 659.55L1369.89 0L1375.97 0L0 838.3199999999999z" fill="rgba(255, 255, 255, .025)"></path><path d="M1920 1080L999.6 1080L1920 757.9300000000001z" fill="rgba(0, 0, 0, .1)"></path><path d="M1920 757.9300000000001L999.6 1080L911.1600000000001 1080L1920 482.26000000000005z" fill="rgba(0, 0, 0, .075)"></path><path d="M1920 482.26L911.1600000000001 1080L867.0600000000001 1080L1920 326.56z" fill="rgba(0, 0, 0, .05)"></path><path d="M1920 326.55999999999995L867.0600000000002 1080L665.7600000000002 1080L1920 171.41999999999996z" fill="rgba(0, 0, 0, .025)"></path></g><defs><mask id="SvgjsMask1104"><rect width="1920" height="1080" fill="#ffffff"></rect></mask><linearGradient x1="89.06%" y1="119.44%" x2="10.94%" y2="-19.44%" gradientUnits="userSpaceOnUse" id="SvgjsLinearGradient1105"><stop stop-color="rgba(255, 57, 188, 1)" offset="0"></stop><stop stop-color="rgba(255, 255, 255, 0)" offset="0.4"></stop></linearGradient></defs></svg>